<svg xmlns="http://www.w3.org/2000/svg" width="91" height="87" viewBox="0 0 91 87" fill="none">
<g filter="url(#filter0_di_1_833)">
<g clip-path="url(#clip0_1_833)">
<rect x="8.93359" y="22.9658" width="60.3063" height="55.0622" rx="9" transform="rotate(-15.4173 8.93359 22.9658)" fill="white"/>
<g clip-path="url(#clip1_1_833)">
<path d="M48.524 33.2319C48.0933 33.351 47.7172 33.6156 47.4598 33.9809C47.2024 34.3461 47.0795 34.7893 47.1122 35.235C47.1449 35.6806 47.3311 36.1011 47.6391 36.4249C47.9471 36.7486 48.3578 36.9556 48.8013 37.0105C49.2447 37.0654 49.6935 36.9648 50.0711 36.7259C50.4488 36.487 50.7319 36.1246 50.8722 35.7003C51.0126 35.2761 51.0016 34.8163 50.8409 34.3994C50.6803 33.9824 50.3801 33.634 49.9914 33.4135C49.7709 33.2881 49.5277 33.2074 49.2759 33.1762C49.024 33.1451 48.7685 33.164 48.524 33.2319Z" fill="url(#paint0_linear_1_833)"/>
<path d="M56.837 22.9275C56.8361 22.9255 56.8355 22.9234 56.8353 22.9212C56.7049 22.6789 56.5095 22.4778 56.271 22.3406C56.0325 22.2034 55.7604 22.1357 55.4854 22.1449C53.2666 22.211 50.1452 23.6536 46.9212 26.1041C43.6724 28.5765 40.8462 31.683 39.172 34.6385C38.634 35.5805 38.1626 36.5591 37.7613 37.5671C36.1843 37.9269 34.8732 38.5272 33.8564 39.3503C30.3171 42.2338 30.4178 47.0878 30.6252 49.0349C30.6539 49.3118 30.7461 49.5783 30.8946 49.8138C31.0431 50.0492 31.2439 50.2472 31.4814 50.3923C31.7189 50.5375 31.9868 50.6259 32.264 50.6506C32.5413 50.6753 32.8205 50.6357 33.08 50.5349L33.0891 50.5324L37.4412 48.8053C37.4625 48.8609 37.4832 48.9115 37.5014 48.9583C37.7098 49.4892 38.0944 49.9323 38.5907 50.2133L41.3848 51.8007C41.8801 52.0835 42.4576 52.1869 43.0202 52.0936L43.1747 52.0683L43.9222 56.6845L43.9247 56.6936C43.9663 56.9419 44.0593 57.1787 44.1976 57.389C44.336 57.5992 44.5167 57.7783 44.7282 57.9148C44.9397 58.0513 45.1773 58.1421 45.426 58.1815C45.6746 58.2209 45.9287 58.2079 46.172 58.1435C46.269 58.1169 46.3637 58.0823 46.455 58.0399C48.245 57.222 52.4662 54.8351 53.1172 50.2978C53.3007 49.0116 53.145 47.5839 52.654 46.046C53.318 45.1852 53.9195 44.278 54.454 43.3314C56.1463 40.3679 57.3798 36.3749 57.8367 32.3754C58.292 28.3943 57.9268 24.9495 56.837 22.9275ZM52.7326 37.1873C52.3176 37.9192 51.6949 38.5116 50.9432 38.8895C50.1915 39.2674 49.3446 39.4138 48.5096 39.3103C47.6746 39.2068 46.8891 38.858 46.2525 38.3079C45.6158 37.7579 45.1566 37.0314 44.9329 36.2203C44.7093 35.4092 44.7312 34.55 44.9959 33.7514C45.2607 32.9528 45.7563 32.2506 46.4202 31.7337C47.0841 31.2169 47.8863 30.9085 48.7255 30.8477C49.5647 30.7869 50.403 30.9764 51.1345 31.3921C51.623 31.6646 52.0525 32.0315 52.398 32.4715C52.7434 32.9116 52.9979 33.4159 53.1466 33.9552C53.2953 34.4945 53.3353 35.0579 53.2643 35.6128C53.1932 36.1677 53.0125 36.7029 52.7326 37.1873Z" fill="url(#paint1_linear_1_833)"/>
<path d="M41.2974 52.4642C41.0182 52.5052 40.7636 52.6467 40.5814 52.8621C40.2197 53.2899 39.8549 53.7148 39.4838 54.1332C38.7332 54.9798 37.3515 54.2378 37.634 53.1419L38.0776 51.4432C38.1499 51.2325 38.1599 51.0054 38.1064 50.7892C38.0529 50.5729 37.9382 50.3768 37.7759 50.2241C37.6137 50.0715 37.4109 49.9688 37.1918 49.9286C36.9728 49.8883 36.7467 49.9121 36.5408 49.997C35.6329 50.3754 34.8766 51.0451 34.3911 51.9006C34.2063 52.227 33.6442 53.2183 34.043 56.295C34.1586 57.1784 34.3198 58.0553 34.5258 58.9221C34.563 59.0721 34.6299 59.2132 34.7226 59.3369C34.8152 59.4607 34.9317 59.5646 35.0652 59.6426C35.1986 59.7206 35.3464 59.7711 35.4996 59.7911C35.6529 59.8111 35.8087 59.8002 35.9577 59.7591L35.9856 59.7514C36.8362 59.4841 37.6725 59.1732 38.4913 58.8202C41.3387 57.5845 41.9015 56.593 42.0864 56.2673C42.5751 55.4108 42.7603 54.4143 42.612 53.4394C42.5669 53.1358 42.4031 52.8626 42.1566 52.6797C41.9101 52.4968 41.601 52.4193 41.2974 52.4642Z" fill="url(#paint2_linear_1_833)"/>
</g>
</g>
</g>
<defs>
<filter id="filter0_di_1_833" x="-2.06641" y="-2.06641" width="94.7744" height="91.113" filterUnits="userSpaceOnUse" color-interpolation-filters="sRGB">
<feFlood flood-opacity="0" result="BackgroundImageFix"/>
<feColorMatrix in="SourceAlpha" type="matrix" values="0 0 0 0 0 0 0 0 0 0 0 0 0 0 0 0 0 0 127 0" result="hardAlpha"/>
<feOffset dy="2"/>
<feGaussianBlur stdDeviation="5.5"/>
<feComposite in2="hardAlpha" operator="out"/>
<feColorMatrix type="matrix" values="0 0 0 0 0 0 0 0 0 0 0 0 0 0 0 0 0 0 0.25 0"/>
<feBlend mode="normal" in2="BackgroundImageFix" result="effect1_dropShadow_1_833"/>
<feBlend mode="normal" in="SourceGraphic" in2="effect1_dropShadow_1_833" result="shape"/>
<feColorMatrix in="SourceAlpha" type="matrix" values="0 0 0 0 0 0 0 0 0 0 0 0 0 0 0 0 0 0 127 0" result="hardAlpha"/>
<feOffset/>
<feGaussianBlur stdDeviation="8.5"/>
<feComposite in2="hardAlpha" operator="arithmetic" k2="-1" k3="1"/>
<feColorMatrix type="matrix" values="0 0 0 0 0.730769 0 0 0 0 0.751913 0 0 0 0 1 0 0 0 0.25 0"/>
<feBlend mode="normal" in2="shape" result="effect2_innerShadow_1_833"/>
</filter>
<linearGradient id="paint0_linear_1_833" x1="48.5251" y1="33.2316" x2="49.552" y2="36.9556" gradientUnits="userSpaceOnUse">
<stop stop-color="#2300A3"/>
<stop offset="1" stop-color="#00D0FF"/>
</linearGradient>
<linearGradient id="paint1_linear_1_833" x1="41.0419" y1="25.9278" x2="49.6608" y2="57.1814" gradientUnits="userSpaceOnUse">
<stop stop-color="#2300A3"/>
<stop offset="1" stop-color="#00D0FF"/>
</linearGradient>
<linearGradient id="paint2_linear_1_833" x1="36.8424" y1="49.9049" x2="39.3053" y2="58.8359" gradientUnits="userSpaceOnUse">
<stop stop-color="#2300A3"/>
<stop offset="1" stop-color="#00D0FF"/>
</linearGradient>
<clipPath id="clip0_1_833">
<rect x="8.93359" y="22.9658" width="60.3063" height="55.0622" rx="9" transform="rotate(-15.4173 8.93359 22.9658)" fill="white"/>
</clipPath>
<clipPath id="clip1_1_833">
<rect width="37.052" height="37.052" fill="white" transform="translate(22.5662 28.6204) rotate(-15.4173)"/>
</clipPath>
</defs>
</svg>
